<svg width="234" height="450" viewBox="0 0 234 450" fill="none" xmlns="http://www.w3.org/2000/svg">
<path fill-rule="evenodd" clip-rule="evenodd" d="M103.729 129.663L129.662 103.729V248.135L103.729 274.067V129.663Z" fill="white"/>
<path fill-rule="evenodd" clip-rule="evenodd" d="M25.9332 351.865V424.067L0 450V233.392L77.798 155.595V191.696L25.9332 243.561V315.763L61.6809 280.015V316.116L25.9332 351.865Z" fill="white"/>
<path fill-rule="evenodd" clip-rule="evenodd" d="M207.46 62.0333V134.236L181.527 160.168V87.9657L155.595 113.899V77.7973L233.392 0V36.1008L207.46 62.0333Z" fill="white"/>
<path fill-rule="evenodd" clip-rule="evenodd" d="M61.6836 352.366L61.6922 340.962L77.7086 324.942L77.8035 371.82L67.6801 381.944V345.325L61.6836 352.366Z" fill="white"/>
<path fill-rule="evenodd" clip-rule="evenodd" d="M66.405 346.82L61.6836 352.366L61.6922 340.962L77.7086 324.942L77.8035 371.82L67.6801 381.944V349.583L71.9361 345.325V371.674L73.5474 370.063L73.4784 335.193L65.9397 342.726V345.814L66.405 346.82Z" fill="white"/>
<path d="M155.591 294.422V263.647L173.916 245.159V275.318V256.831L155.591 275.318" stroke="white" stroke-width="1.27615" stroke-miterlimit="1.5" stroke-linejoin="round"/>
<path d="M178.587 270.617V237.931L195.006 254.496V221.083" stroke="white" stroke-width="1.27615" stroke-miterlimit="1.5" stroke-linejoin="bevel"/>
<path fill-rule="evenodd" clip-rule="evenodd" d="M199.975 217.73L213.999 203.581V234.898L199.682 249.343L199.975 217.73Z" stroke="white" stroke-width="1.27615" stroke-miterlimit="1.5" stroke-linejoin="round"/>
<path d="M233.39 184.921L218.656 199.785V212.862L232.938 198.454V215.758L219.744 229.057" stroke="white" stroke-width="1.27615" stroke-miterlimit="1.5" stroke-linejoin="round"/>
<path fill-rule="evenodd" clip-rule="evenodd" d="M103.716 296.913L129.648 270.908V319.959L103.716 345.891V296.913ZM113.073 300.783V323.294L120.282 316.081V293.55L113.073 300.783Z" fill="white"/>
</svg>
