<svg width="1005" height="663" viewBox="0 0 1005 663" fill="none" xmlns="http://www.w3.org/2000/svg">
<path d="M123.599 0.258584L366.384 185.06L366.418 185.086H366.461H645.999H646.042L646.076 185.06L891.814 0.265378L877.009 345.31L877.006 345.366L877.046 345.406L1004.29 472.783L685.492 519.213L685.458 519.218L685.432 519.239L499.808 662.226L306.284 519.237L306.258 519.218L306.227 519.214L0.264896 472.784L123.563 345.405L123.599 345.368V345.316V0.258584Z" fill="#F20577"/>
<path d="M123.599 0.258584L366.384 185.06L366.418 185.086H366.461H645.999H646.042L646.076 185.06L891.814 0.265378L877.009 345.31L877.006 345.366L877.046 345.406L1004.29 472.783L685.492 519.213L685.458 519.218L685.432 519.239L499.808 662.226L306.284 519.237L306.258 519.218L306.227 519.214L0.264896 472.784L123.563 345.405L123.599 345.368V345.316V0.258584Z" stroke="#0E0E17" stroke-width="0.256292"/>
<path d="M123.599 0.258584L366.384 185.06L366.418 185.086H366.461H645.999H646.042L646.076 185.06L891.814 0.265378L877.009 345.31L877.006 345.366L877.046 345.406L1004.29 472.783L685.492 519.213L685.458 519.218L685.432 519.239L499.808 662.226L306.284 519.237L306.258 519.218L306.227 519.214L0.264896 472.784L123.563 345.405L123.599 345.368V345.316V0.258584Z" stroke="#F20577" stroke-width="0.256292"/>
<path d="M538.235 627.586C538.24 627.615 538.244 627.639 538.246 627.66L498.871 656.715L459.517 627.675C459.524 627.658 459.532 627.639 459.542 627.618C459.585 627.521 459.655 627.377 459.756 627.193C459.959 626.826 460.291 626.298 460.803 625.664C461.827 624.395 463.574 622.696 466.462 620.996C472.24 617.594 482.587 614.18 500.847 614.18C519.109 614.18 528.462 617.595 533.247 620.99C535.638 622.687 536.889 624.38 537.543 625.642C537.87 626.274 538.048 626.799 538.144 627.164C538.192 627.347 538.22 627.49 538.235 627.586Z" fill="#0E0E17"/>
<path d="M538.235 627.586C538.24 627.615 538.244 627.639 538.246 627.66L498.871 656.715L459.517 627.675C459.524 627.658 459.532 627.639 459.542 627.618C459.585 627.521 459.655 627.377 459.756 627.193C459.959 626.826 460.291 626.298 460.803 625.664C461.827 624.395 463.574 622.696 466.462 620.996C472.24 617.594 482.587 614.18 500.847 614.18C519.109 614.18 528.462 617.595 533.247 620.99C535.638 622.687 536.889 624.38 537.543 625.642C537.87 626.274 538.048 626.799 538.144 627.164C538.192 627.347 538.22 627.49 538.235 627.586Z" stroke="#0E0E17" stroke-width="0.256292"/>
<path d="M538.235 627.586C538.24 627.615 538.244 627.639 538.246 627.66L498.871 656.715L459.517 627.675C459.524 627.658 459.532 627.639 459.542 627.618C459.585 627.521 459.655 627.377 459.756 627.193C459.959 626.826 460.291 626.298 460.803 625.664C461.827 624.395 463.574 622.696 466.462 620.996C472.24 617.594 482.587 614.18 500.847 614.18C519.109 614.18 528.462 617.595 533.247 620.99C535.638 622.687 536.889 624.38 537.543 625.642C537.87 626.274 538.048 626.799 538.144 627.164C538.192 627.347 538.22 627.49 538.235 627.586Z" stroke="#F20577" stroke-width="0.256292"/>
<path d="M148.24 317.683L143.31 50.3177L330.632 197.642L148.24 317.683Z" fill="#0E0E17"/>
<path d="M148.24 317.683L143.31 50.3177L330.632 197.642L148.24 317.683Z" stroke="#0E0E17" stroke-width="0.256292"/>
<path d="M148.24 317.683L143.31 50.3177L330.632 197.642L148.24 317.683Z" stroke="#F20577" stroke-width="0.256292"/>
<path d="M575.09 471.49L756.645 352L736.501 414.557L575.09 471.49Z" fill="#0E0E17"/>
<path d="M575.09 471.49L756.645 352L736.501 414.557L575.09 471.49Z" stroke="#0E0E17" stroke-width="0.256292"/>
<path d="M575.09 471.49L756.645 352L736.501 414.557L575.09 471.49Z" stroke="#F20577" stroke-width="0.256292"/>
<path d="M425.984 471.49L244.428 352L264.573 414.557L425.984 471.49Z" fill="#0E0E17"/>
<path d="M425.984 471.49L244.428 352L264.573 414.557L425.984 471.49Z" stroke="#0E0E17" stroke-width="0.256292"/>
<path d="M425.984 471.49L244.428 352L264.573 414.557L425.984 471.49Z" stroke="#F20577" stroke-width="0.256292"/>
<path d="M859.586 316.768L864.516 49.4022L677.194 196.726L859.586 316.768Z" fill="#0E0E17"/>
<path d="M859.586 316.768L864.516 49.4022L677.194 196.726L859.586 316.768Z" stroke="#0E0E17" stroke-width="0.256292"/>
<path d="M859.586 316.768L864.516 49.4022L677.194 196.726L859.586 316.768Z" stroke="#F20577" stroke-width="0.256292"/>
<path d="M546.459 623.272L498.815 660.941L454.11 623.29L482.456 612.085C494.834 607.192 508.636 607.344 520.903 612.51L546.459 623.272Z" stroke="#0E0E17" stroke-width="0.768877"/>
<path d="M546.459 623.272L498.815 660.941L454.11 623.29L482.456 612.085C494.834 607.192 508.636 607.344 520.903 612.51L546.459 623.272Z" stroke="#F20577" stroke-width="0.768877"/>
</svg>
