<svg width="831" height="488" viewBox="0 0 831 488" fill="none" xmlns="http://www.w3.org/2000/svg">
<path fill-rule="evenodd" clip-rule="evenodd" d="M112.489 140.612L140.612 112.489V269.088L112.489 297.21V140.612Z" fill="white"/>
<path fill-rule="evenodd" clip-rule="evenodd" d="M28.1232 381.578V459.878L0 488V253.101L84.3677 168.734V207.884L28.1232 264.129V342.428L66.8896 303.661V342.811L28.1232 381.578Z" fill="white"/>
<path fill-rule="evenodd" clip-rule="evenodd" d="M224.979 67.2716V145.571L196.857 173.693V95.3939L168.734 123.517V84.3668L253.101 0V39.1493L224.979 67.2716Z" fill="white"/>
<path fill-rule="evenodd" clip-rule="evenodd" d="M112.476 321.986L140.598 293.785V346.978L112.476 375.1V321.986ZM122.623 326.183V350.595L130.441 342.773V318.34L122.623 326.183Z" fill="white"/>
<path d="M360.827 137V84.5H366.677V137H360.827ZM363.752 113.6V107.825H390.302V113.6H363.752ZM363.752 90.2V84.5H393.827V90.2H363.752ZM420.761 137.75C416.861 137.75 413.386 136.875 410.336 135.125C407.336 133.375 404.961 130.95 403.211 127.85C401.511 124.75 400.661 121.225 400.661 117.275C400.661 113.375 401.511 109.9 403.211 106.85C404.961 103.8 407.336 101.4 410.336 99.65C413.386 97.9 416.861 97.025 420.761 97.025C424.611 97.025 428.036 97.9 431.036 99.65C434.086 101.4 436.461 103.8 438.161 106.85C439.911 109.9 440.786 113.375 440.786 117.275C440.786 121.225 439.911 124.75 438.161 127.85C436.461 130.95 434.086 133.375 431.036 135.125C428.036 136.875 424.611 137.75 420.761 137.75ZM420.761 132.425C423.511 132.425 425.961 131.775 428.111 130.475C430.261 129.125 431.936 127.325 433.136 125.075C434.336 122.775 434.936 120.175 434.936 117.275C434.936 114.375 434.336 111.8 433.136 109.55C431.936 107.3 430.261 105.55 428.111 104.3C425.961 103 423.511 102.35 420.761 102.35C418.011 102.35 415.536 103 413.336 104.3C411.186 105.55 409.486 107.325 408.236 109.625C407.036 111.875 406.461 114.425 406.511 117.275C406.461 120.175 407.036 122.775 408.236 125.075C409.486 127.325 411.186 129.125 413.336 130.475C415.536 131.775 418.011 132.425 420.761 132.425ZM416.036 92.075L414.011 89L424.661 80.075L428.336 84.8L416.036 92.075ZM450.493 137V97.85H456.118L456.268 108.275L455.668 106.85C456.218 105.1 457.093 103.475 458.293 101.975C459.543 100.475 461.018 99.275 462.718 98.375C464.418 97.475 466.293 97.025 468.343 97.025C469.193 97.025 469.993 97.1 470.743 97.25C471.493 97.35 472.118 97.5 472.618 97.7L471.043 104C470.393 103.7 469.718 103.5 469.018 103.4C468.368 103.25 467.743 103.175 467.143 103.175C465.443 103.175 463.918 103.475 462.568 104.075C461.218 104.675 460.068 105.525 459.118 106.625C458.168 107.675 457.443 108.9 456.943 110.3C456.443 111.7 456.193 113.2 456.193 114.8V137H450.493ZM493.846 137.75C490.846 137.75 488.296 137.15 486.196 135.95C484.146 134.7 482.571 132.9 481.471 130.55C480.421 128.2 479.896 125.275 479.896 121.775V97.85H485.596V120.65C485.596 123.3 485.946 125.525 486.646 127.325C487.396 129.075 488.496 130.4 489.946 131.3C491.446 132.2 493.271 132.65 495.421 132.65C497.071 132.65 498.596 132.375 499.996 131.825C501.396 131.225 502.621 130.425 503.671 129.425C504.721 128.425 505.546 127.25 506.146 125.9C506.746 124.55 507.046 123.125 507.046 121.625V97.85H512.671V137H507.121L506.896 128.75L507.796 128.3C507.196 130.05 506.196 131.65 504.796 133.1C503.396 134.5 501.721 135.625 499.771 136.475C497.871 137.325 495.896 137.75 493.846 137.75ZM525.048 137V97.85H530.673L530.823 106.775L529.698 107.15C530.098 105.65 530.748 104.3 531.648 103.1C532.598 101.85 533.723 100.775 535.023 99.875C536.323 98.975 537.748 98.3 539.298 97.85C540.848 97.35 542.473 97.1 544.173 97.1C546.223 97.1 548.048 97.45 549.648 98.15C551.298 98.8 552.673 99.95 553.773 101.6C554.923 103.2 555.798 105.325 556.398 107.975L555.048 107.3L555.573 106.025C556.073 104.875 556.798 103.775 557.748 102.725C558.748 101.625 559.873 100.65 561.123 99.8C562.423 98.95 563.823 98.3 565.323 97.85C566.873 97.35 568.448 97.1 570.048 97.1C572.798 97.1 575.123 97.7 577.023 98.9C578.923 100.05 580.348 101.825 581.298 104.225C582.298 106.625 582.798 109.675 582.798 113.375V137H577.023V113.675C577.023 111.075 576.698 108.95 576.048 107.3C575.398 105.65 574.423 104.425 573.123 103.625C571.873 102.775 570.273 102.35 568.323 102.35C566.623 102.35 565.048 102.65 563.598 103.25C562.198 103.8 560.973 104.6 559.923 105.65C558.923 106.65 558.123 107.8 557.523 109.1C556.973 110.4 556.698 111.8 556.698 113.3V137H550.998V113.6C550.998 111.1 550.648 109.025 549.948 107.375C549.298 105.725 548.323 104.475 547.023 103.625C545.723 102.775 544.123 102.35 542.223 102.35C540.573 102.35 539.048 102.65 537.648 103.25C536.248 103.8 535.023 104.575 533.973 105.575C532.973 106.575 532.173 107.725 531.573 109.025C531.023 110.325 530.748 111.725 530.748 113.225V137H525.048ZM633.379 137.75C629.829 137.75 626.629 136.875 623.779 135.125C620.979 133.375 618.754 130.975 617.104 127.925C615.504 124.825 614.704 121.325 614.704 117.425C614.704 113.475 615.529 109.975 617.179 106.925C618.829 103.825 621.054 101.4 623.854 99.65C626.654 97.9 629.804 97.025 633.304 97.025C635.254 97.025 637.129 97.325 638.929 97.925C640.779 98.525 642.429 99.375 643.879 100.475C645.329 101.525 646.529 102.75 647.479 104.15C648.429 105.5 649.004 106.925 649.204 108.425L647.479 107.825V81.5H653.104V137H647.554L647.404 127.25L648.829 126.725C648.629 128.125 648.054 129.5 647.104 130.85C646.204 132.15 645.054 133.325 643.654 134.375C642.254 135.425 640.654 136.25 638.854 136.85C637.104 137.45 635.279 137.75 633.379 137.75ZM634.204 132.575C636.804 132.575 639.129 131.925 641.179 130.625C643.229 129.325 644.829 127.525 645.979 125.225C647.179 122.925 647.779 120.3 647.779 117.35C647.779 114.4 647.179 111.8 645.979 109.55C644.829 107.25 643.229 105.45 641.179 104.15C639.129 102.8 636.804 102.125 634.204 102.125C631.504 102.125 629.129 102.8 627.079 104.15C625.079 105.45 623.479 107.25 622.279 109.55C621.129 111.8 620.554 114.4 620.554 117.35C620.554 120.25 621.129 122.85 622.279 125.15C623.429 127.45 625.029 129.275 627.079 130.625C629.129 131.925 631.504 132.575 634.204 132.575ZM682.811 137.75C678.911 137.75 675.436 136.9 672.386 135.2C669.386 133.5 667.036 131.125 665.336 128.075C663.636 125.025 662.786 121.525 662.786 117.575C662.786 114.525 663.261 111.775 664.211 109.325C665.161 106.825 666.486 104.65 668.186 102.8C669.936 100.95 672.011 99.525 674.411 98.525C676.811 97.475 679.411 96.95 682.211 96.95C684.861 96.95 687.261 97.425 689.411 98.375C691.611 99.325 693.486 100.65 695.036 102.35C696.636 104 697.836 105.975 698.636 108.275C699.436 110.575 699.786 113.1 699.686 115.85L699.611 118.475H666.986L666.161 113.75H695.336L693.986 115.025V113.225C693.886 111.425 693.361 109.7 692.411 108.05C691.461 106.35 690.111 104.975 688.361 103.925C686.661 102.875 684.611 102.35 682.211 102.35C679.411 102.35 676.986 102.925 674.936 104.075C672.886 105.175 671.311 106.825 670.211 109.025C669.111 111.225 668.561 113.95 668.561 117.2C668.561 120.3 669.161 123 670.361 125.3C671.561 127.55 673.261 129.3 675.461 130.55C677.711 131.8 680.411 132.425 683.561 132.425C685.411 132.425 687.236 132.125 689.036 131.525C690.886 130.875 692.911 129.625 695.111 127.775L698.036 131.825C696.886 132.975 695.511 134 693.911 134.9C692.311 135.75 690.561 136.45 688.661 137C686.761 137.5 684.811 137.75 682.811 137.75ZM359.502 287V169.4H376.782V287H359.502ZM390.458 287V199.48H406.618V206.84C408.538 204.973 410.698 203.08 413.098 201.16C415.498 199.187 417.711 198.2 419.738 198.2C422.404 198.2 424.644 199.053 426.458 200.76C428.271 202.467 429.631 204.627 430.538 207.24C431.444 209.853 431.898 212.547 431.898 215.32V287H415.738V218.52C415.738 216.813 415.444 215.613 414.858 214.92C414.271 214.227 413.284 213.88 411.898 213.88C410.724 213.88 409.711 214.307 408.858 215.16C408.058 215.96 407.311 216.92 406.618 218.04V287H390.458ZM462.953 288.12C456.499 288.12 451.433 285.96 447.753 281.64C444.073 277.267 442.233 271.747 442.233 265.08V221.24C442.233 214.573 444.073 209.08 447.753 204.76C451.433 200.387 456.499 198.2 462.953 198.2C469.353 198.2 474.393 200.387 478.073 204.76C481.806 209.08 483.673 214.573 483.673 221.24V265.08C483.673 271.747 481.806 277.267 478.073 281.64C474.393 285.96 469.353 288.12 462.953 288.12ZM462.953 274.04C465.033 274.04 466.473 273.213 467.273 271.56C468.073 269.853 468.473 267.693 468.473 265.08V221.24C468.473 218.573 468.073 216.413 467.273 214.76C466.473 213.107 465.033 212.28 462.953 212.28C460.873 212.28 459.433 213.107 458.633 214.76C457.833 216.413 457.433 218.573 457.433 221.24V265.08C457.433 267.747 457.833 269.907 458.633 271.56C459.433 273.213 460.873 274.04 462.953 274.04ZM505.485 287L491.245 199.48H506.925L512.365 250.2L512.845 259H514.125L514.605 250.2L520.045 199.48H535.725L521.485 287H505.485ZM555.587 288.28C551.853 288.28 548.627 286.387 545.907 282.6C543.187 278.813 541.827 273.027 541.827 265.24C541.827 257.72 543.427 251.667 546.627 247.08C549.88 242.493 554.733 238.52 561.187 235.16C563.213 234.093 564.92 233.133 566.307 232.28C567.693 231.427 568.547 230.627 568.867 229.88V220.28C568.867 218.093 568.6 216.227 568.067 214.68C567.587 213.08 566.36 212.28 564.387 212.28C562.573 212.28 561.347 213.133 560.707 214.84C560.067 216.493 559.747 218.573 559.747 221.08V225.24H543.587V221.56C543.587 216.76 544.52 212.627 546.387 209.16C548.307 205.64 550.893 202.947 554.147 201.08C557.453 199.16 561.187 198.2 565.347 198.2C569.347 198.2 572.813 199.133 575.747 201C578.68 202.813 580.947 205.347 582.547 208.6C584.2 211.8 585.027 215.48 585.027 219.64V271.8C585.027 275.693 585.133 278.733 585.347 280.92C585.56 283.053 585.827 285.08 586.147 287H570.307C569.613 286.147 569.187 284.893 569.027 283.24C568.92 281.587 568.867 280.493 568.867 279.96H567.747C566.413 282.413 564.707 284.413 562.627 285.96C560.6 287.507 558.253 288.28 555.587 288.28ZM562.147 272.44C564.013 272.44 565.587 271.8 566.867 270.52C568.2 269.24 568.867 267.853 568.867 266.36V245.56C564.973 247.213 562.12 249.72 560.307 253.08C558.547 256.387 557.667 260.12 557.667 264.28C557.667 266.093 558.013 267.907 558.707 269.72C559.4 271.533 560.547 272.44 562.147 272.44ZM617.16 288.2C610.067 288.2 604.84 285.987 601.48 281.56C598.174 277.133 596.52 270.973 596.52 263.08V223.32C596.52 215.373 598.174 209.213 601.48 204.84C604.84 200.413 610.067 198.2 617.16 198.2C624.254 198.2 629.48 200.413 632.84 204.84C636.254 209.267 637.96 215.427 637.96 223.32V230.2H621.8V221.24C621.8 218.787 621.48 216.733 620.84 215.08C620.2 213.427 618.974 212.6 617.16 212.6C615.347 212.6 614.147 213.453 613.56 215.16C612.974 216.813 612.68 218.84 612.68 221.24V265.16C612.68 267.56 612.974 269.613 613.56 271.32C614.147 272.973 615.347 273.8 617.16 273.8C618.974 273.8 620.2 272.973 620.84 271.32C621.48 269.667 621.8 267.613 621.8 265.16V256.2H637.96V263.08C637.96 270.973 636.254 277.133 632.84 281.56C629.48 285.987 624.254 288.2 617.16 288.2ZM627.08 291.88C629.427 291.88 631.56 292.653 633.48 294.2C635.4 295.8 636.36 298.467 636.36 302.2C636.36 305.667 635.374 308.493 633.4 310.68C631.48 312.92 628.974 314.547 625.88 315.56C622.84 316.573 619.64 317.08 616.28 317.08C613.4 317.08 610.467 316.627 607.48 315.72C604.547 314.867 602.387 313.933 601 312.92L605.16 304.12C606.12 304.813 607.774 305.64 610.12 306.6C612.52 307.56 614.867 308.04 617.16 308.04C619.507 308.04 621.507 307.64 623.16 306.84C624.814 306.04 625.64 304.653 625.64 302.68C625.64 301.027 625.187 299.907 624.28 299.32C623.427 298.733 622.494 298.44 621.48 298.44C619.08 298.44 617.347 299.347 616.28 301.16L607.56 298.28L612.28 287H621.8L618.04 295.64H617.32C617.747 294.467 618.947 293.533 620.92 292.84C622.894 292.2 624.947 291.88 627.08 291.88ZM660.893 288.28C657.159 288.28 653.933 286.387 651.213 282.6C648.493 278.813 647.133 273.027 647.133 265.24C647.133 257.72 648.733 251.667 651.933 247.08C655.186 242.493 660.039 238.52 666.493 235.16C668.519 234.093 670.226 233.133 671.613 232.28C672.999 231.427 673.853 230.627 674.173 229.88V220.28C674.173 218.093 673.906 216.227 673.373 214.68C672.893 213.08 671.666 212.28 669.693 212.28C667.879 212.28 666.653 213.133 666.013 214.84C665.373 216.493 665.053 218.573 665.053 221.08V225.24H648.893V221.56C648.893 216.76 649.826 212.627 651.693 209.16C653.613 205.64 656.199 202.947 659.453 201.08C662.759 199.16 666.493 198.2 670.653 198.2C674.653 198.2 678.119 199.133 681.053 201C683.986 202.813 686.253 205.347 687.853 208.6C689.506 211.8 690.333 215.48 690.333 219.64V271.8C690.333 275.693 690.439 278.733 690.653 280.92C690.866 283.053 691.133 285.08 691.453 287H675.613C674.919 286.147 674.493 284.893 674.333 283.24C674.226 281.587 674.173 280.493 674.173 279.96H673.053C671.719 282.413 670.013 284.413 667.933 285.96C665.906 287.507 663.559 288.28 660.893 288.28ZM667.453 272.44C669.319 272.44 670.893 271.8 672.173 270.52C673.506 269.24 674.173 267.853 674.173 266.36V245.56C670.279 247.213 667.426 249.72 665.613 253.08C663.853 256.387 662.973 260.12 662.973 264.28C662.973 266.093 663.319 267.907 664.013 269.72C664.706 271.533 665.853 272.44 667.453 272.44ZM677.053 190.6C674.546 190.6 672.253 190.12 670.173 189.16C667.879 188.093 665.479 187.56 662.973 187.56C661.533 187.56 660.039 187.827 658.493 188.36C656.946 188.84 655.613 189.427 654.493 190.12V178.28C655.239 177.693 656.066 177.213 656.973 176.84C657.879 176.413 658.813 176.04 659.773 175.72C660.733 175.4 661.799 175.24 662.973 175.24C665.479 175.24 667.826 175.667 670.013 176.52C671.186 176.947 672.359 177.347 673.533 177.72C674.706 178.093 675.879 178.28 677.053 178.28C678.493 178.28 679.986 178.04 681.533 177.56C683.079 177.027 684.413 176.413 685.533 175.72V187.56C684.519 188.467 683.159 189.213 681.453 189.8C679.746 190.333 678.279 190.6 677.053 190.6ZM722.547 288.12C716.093 288.12 711.027 285.96 707.347 281.64C703.667 277.267 701.827 271.747 701.827 265.08V221.24C701.827 214.573 703.667 209.08 707.347 204.76C711.027 200.387 716.093 198.2 722.547 198.2C728.947 198.2 733.987 200.387 737.667 204.76C741.4 209.08 743.267 214.573 743.267 221.24V265.08C743.267 271.747 741.4 277.267 737.667 281.64C733.987 285.96 728.947 288.12 722.547 288.12ZM722.547 274.04C724.627 274.04 726.067 273.213 726.867 271.56C727.667 269.853 728.067 267.693 728.067 265.08V221.24C728.067 218.573 727.667 216.413 726.867 214.76C726.067 213.107 724.627 212.28 722.547 212.28C720.467 212.28 719.027 213.107 718.227 214.76C717.427 216.413 717.027 218.573 717.027 221.24V265.08C717.027 267.747 717.427 269.907 718.227 271.56C719.027 273.213 720.467 274.04 722.547 274.04ZM801.527 288.28C795.073 288.28 789.98 286.067 786.247 281.64C782.567 277.16 780.727 271.693 780.727 265.24V221.24C780.727 214.413 782.567 208.867 786.247 204.6C789.927 200.333 795.073 198.2 801.687 198.2C806.007 198.2 809.713 199.187 812.807 201.16C815.953 203.133 818.353 205.827 820.007 209.24C821.66 212.6 822.487 216.44 822.487 220.76V246.2H795.767V265.24C795.767 267.427 796.247 269.453 797.207 271.32C798.22 273.133 799.713 274.04 801.687 274.04C803.767 274.04 805.233 273.187 806.087 271.48C806.993 269.773 807.447 267.693 807.447 265.24V255.64H822.487V265.72C822.487 272.493 820.647 277.96 816.967 282.12C813.34 286.227 808.193 288.28 801.527 288.28ZM795.767 233.56H807.447V221.24C807.447 218.84 807.02 216.76 806.167 215C805.367 213.187 803.873 212.28 801.687 212.28C799.66 212.28 798.167 213.213 797.207 215.08C796.247 216.893 795.767 218.947 795.767 221.24V233.56ZM371.022 437V337.16H354.702V319.4H404.622V337.16H388.302V437H371.022ZM428.895 438.28C422.442 438.28 417.349 436.067 413.615 431.64C409.935 427.16 408.095 421.693 408.095 415.24V371.24C408.095 364.413 409.935 358.867 413.615 354.6C417.295 350.333 422.442 348.2 429.055 348.2C433.375 348.2 437.082 349.187 440.175 351.16C443.322 353.133 445.722 355.827 447.375 359.24C449.029 362.6 449.855 366.44 449.855 370.76V396.2H423.135V415.24C423.135 417.427 423.615 419.453 424.575 421.32C425.589 423.133 427.082 424.04 429.055 424.04C431.135 424.04 432.602 423.187 433.455 421.48C434.362 419.773 434.815 417.693 434.815 415.24V405.64H449.855V415.72C449.855 422.493 448.015 427.96 444.335 432.12C440.709 436.227 435.562 438.28 428.895 438.28ZM423.135 383.56H434.815V371.24C434.815 368.84 434.389 366.76 433.535 365C432.735 363.187 431.242 362.28 429.055 362.28C427.029 362.28 425.535 363.213 424.575 365.08C423.615 366.893 423.135 368.947 423.135 371.24V383.56ZM480.06 438.2C472.967 438.2 467.74 435.987 464.38 431.56C461.074 427.133 459.42 420.973 459.42 413.08V373.32C459.42 365.373 461.074 359.213 464.38 354.84C467.74 350.413 472.967 348.2 480.06 348.2C487.154 348.2 492.38 350.413 495.74 354.84C499.154 359.267 500.86 365.427 500.86 373.32V380.2H484.7V371.24C484.7 368.787 484.38 366.733 483.74 365.08C483.1 363.427 481.874 362.6 480.06 362.6C478.247 362.6 477.047 363.453 476.46 365.16C475.874 366.813 475.58 368.84 475.58 371.24V415.16C475.58 417.56 475.874 419.613 476.46 421.32C477.047 422.973 478.247 423.8 480.06 423.8C481.874 423.8 483.1 422.973 483.74 421.32C484.38 419.667 484.7 417.613 484.7 415.16V406.2H500.86V413.08C500.86 420.973 499.154 427.133 495.74 431.56C492.38 435.987 487.154 438.2 480.06 438.2ZM511.233 437V349.48H527.393V356.84C529.313 354.973 531.473 353.08 533.873 351.16C536.273 349.187 538.486 348.2 540.513 348.2C543.179 348.2 545.419 349.053 547.233 350.76C549.046 352.467 550.406 354.627 551.313 357.24C552.219 359.853 552.673 362.547 552.673 365.32V437H536.513V368.52C536.513 366.813 536.219 365.613 535.633 364.92C535.046 364.227 534.059 363.88 532.673 363.88C531.499 363.88 530.486 364.307 529.633 365.16C528.833 365.96 528.086 366.92 527.393 368.04V437H511.233ZM583.728 438.12C577.274 438.12 572.208 435.96 568.528 431.64C564.848 427.267 563.008 421.747 563.008 415.08V371.24C563.008 364.573 564.848 359.08 568.528 354.76C572.208 350.387 577.274 348.2 583.728 348.2C590.128 348.2 595.168 350.387 598.848 354.76C602.581 359.08 604.448 364.573 604.448 371.24V415.08C604.448 421.747 602.581 427.267 598.848 431.64C595.168 435.96 590.128 438.12 583.728 438.12ZM583.728 424.04C585.808 424.04 587.248 423.213 588.048 421.56C588.848 419.853 589.248 417.693 589.248 415.08V371.24C589.248 368.573 588.848 366.413 588.048 364.76C587.248 363.107 585.808 362.28 583.728 362.28C581.648 362.28 580.208 363.107 579.408 364.76C578.608 366.413 578.208 368.573 578.208 371.24V415.08C578.208 417.747 578.608 419.907 579.408 421.56C580.208 423.213 581.648 424.04 583.728 424.04ZM615.62 437V319.4H631.78V437H615.62ZM663.722 438.12C657.268 438.12 652.202 435.96 648.522 431.64C644.842 427.267 643.002 421.747 643.002 415.08V371.24C643.002 364.573 644.842 359.08 648.522 354.76C652.202 350.387 657.268 348.2 663.722 348.2C670.122 348.2 675.162 350.387 678.842 354.76C682.575 359.08 684.442 364.573 684.442 371.24V415.08C684.442 421.747 682.575 427.267 678.842 431.64C675.162 435.96 670.122 438.12 663.722 438.12ZM663.722 424.04C665.802 424.04 667.242 423.213 668.042 421.56C668.842 419.853 669.242 417.693 669.242 415.08V371.24C669.242 368.573 668.842 366.413 668.042 364.76C667.242 363.107 665.802 362.28 663.722 362.28C661.642 362.28 660.202 363.107 659.402 364.76C658.602 366.413 658.202 368.573 658.202 371.24V415.08C658.202 417.747 658.602 419.907 659.402 421.56C660.202 423.213 661.642 424.04 663.722 424.04ZM717.934 468.36C713.401 468.36 709.161 467.853 705.214 466.84C701.267 465.827 698.067 464.173 695.614 461.88C693.214 459.64 692.014 456.68 692.014 453C692.014 450.173 692.787 447.72 694.334 445.64C695.934 443.56 697.747 441.853 699.774 440.52C701.801 439.24 703.427 438.44 704.654 438.12C702.041 437.373 699.747 436.093 697.774 434.28C695.854 432.467 694.894 429.853 694.894 426.44C694.894 423.133 695.961 420.44 698.094 418.36C700.227 416.28 702.521 414.6 704.974 413.32C702.041 411.4 699.747 408.893 698.094 405.8C696.494 402.653 695.694 398.813 695.694 394.28V370.44C695.694 363.88 697.507 358.547 701.134 354.44C704.814 350.28 709.827 348.2 716.174 348.2C720.281 348.2 723.614 349 726.174 350.6C728.787 352.147 730.841 354.013 732.334 356.2C733.881 353.587 735.961 351.613 738.574 350.28C741.187 348.893 743.534 348.2 745.614 348.2V362.6C743.481 362.6 741.614 362.787 740.014 363.16C738.414 363.48 737.134 363.933 736.174 364.52C736.334 364.893 736.494 365.667 736.654 366.84C736.867 368.013 736.974 369.053 736.974 369.96V394.76C736.974 400.947 735.081 406.093 731.294 410.2C727.507 414.307 722.467 416.36 716.174 416.36C714.681 416.36 713.667 416.307 713.134 416.2C712.441 416.84 711.881 417.48 711.454 418.12C711.081 418.76 710.894 419.453 710.894 420.2C710.894 421.907 711.854 423.133 713.774 423.88C715.747 424.573 718.361 425.16 721.614 425.64C728.494 426.653 734.067 428.653 738.334 431.64C742.654 434.627 744.814 439.4 744.814 445.96C744.814 451.08 743.507 455.293 740.894 458.6C738.334 461.907 735.001 464.36 730.894 465.96C726.787 467.56 722.467 468.36 717.934 468.36ZM718.254 454.76C720.921 454.76 723.241 454.28 725.214 453.32C727.187 452.36 728.174 450.867 728.174 448.84C728.174 446.813 727.561 445.427 726.334 444.68C725.161 443.987 723.161 443.293 720.334 442.6L713.614 441C711.961 441.96 710.547 443.053 709.374 444.28C708.254 445.507 707.694 446.973 707.694 448.68C707.694 450.333 708.521 451.747 710.174 452.92C711.827 454.147 714.521 454.76 718.254 454.76ZM716.334 402.92C718.041 402.92 719.267 402.333 720.014 401.16C720.761 399.987 721.134 398.227 721.134 395.88V370.28C721.134 368.147 720.787 366.413 720.094 365.08C719.401 363.747 718.147 363.08 716.334 363.08C714.521 363.08 713.267 363.773 712.574 365.16C711.881 366.547 711.534 368.253 711.534 370.28V395.88C711.534 398.227 711.907 399.987 712.654 401.16C713.401 402.333 714.627 402.92 716.334 402.92ZM753.97 437V349.48H770.13V437H753.97ZM753.97 335.56V319.4H770.13V335.56H753.97ZM794.712 438.28C790.978 438.28 787.752 436.387 785.032 432.6C782.312 428.813 780.952 423.027 780.952 415.24C780.952 407.72 782.552 401.667 785.752 397.08C789.005 392.493 793.858 388.52 800.312 385.16C802.338 384.093 804.045 383.133 805.432 382.28C806.818 381.427 807.672 380.627 807.992 379.88V370.28C807.992 368.093 807.725 366.227 807.192 364.68C806.712 363.08 805.485 362.28 803.512 362.28C801.698 362.28 800.472 363.133 799.832 364.84C799.192 366.493 798.872 368.573 798.872 371.08V375.24H782.712V371.56C782.712 366.76 783.645 362.627 785.512 359.16C787.432 355.64 790.018 352.947 793.272 351.08C796.578 349.16 800.312 348.2 804.472 348.2C808.472 348.2 811.938 349.133 814.872 351C817.805 352.813 820.072 355.347 821.672 358.6C823.325 361.8 824.152 365.48 824.152 369.64V421.8C824.152 425.693 824.258 428.733 824.472 430.92C824.685 433.053 824.952 435.08 825.272 437H809.432C808.738 436.147 808.312 434.893 808.152 433.24C808.045 431.587 807.992 430.493 807.992 429.96H806.872C805.538 432.413 803.832 434.413 801.752 435.96C799.725 437.507 797.378 438.28 794.712 438.28ZM801.272 422.44C803.138 422.44 804.712 421.8 805.992 420.52C807.325 419.24 807.992 417.853 807.992 416.36V395.56C804.098 397.213 801.245 399.72 799.432 403.08C797.672 406.387 796.792 410.12 796.792 414.28C796.792 416.093 797.138 417.907 797.832 419.72C798.525 421.533 799.672 422.44 801.272 422.44Z" fill="white"/>
<line x1="304.602" x2="304.602" y2="488" stroke="white" stroke-width="3"/>
</svg>
